<svg width="30" xmlns="http://www.w3.org/2000/svg" height="36" id="screenshot-839613cc-263f-80c6-8006-6dce860c1198" viewBox="0 0 30 36" xmlns:xlink="http://www.w3.org/1999/xlink" fill="none" version="1.1"><g id="shape-839613cc-263f-80c6-8006-6dce860c1198" rx="0" ry="0"><g id="shape-839613cc-263f-80c6-8006-6dcbdce66410" width="640" height="512" rx="0" ry="0" style="fill: rgb(0, 0, 0);"><g id="shape-839613cc-263f-80c6-8006-6dcbdce66411" style="display: none;"><g class="fills" id="fills-839613cc-263f-80c6-8006-6dcbdce66411"><rect width="30" height="24" x="0" transform="matrix(1.000000, 0.000000, 0.000000, 1.000000, 0.000000, 0.000000)" style="fill: none;" ry="0" fill="none" rx="0" y="12"/></g></g><g id="shape-839613cc-263f-80c6-8006-6dcbdce66412"><g class="fills" id="fills-839613cc-263f-80c6-8006-6dcbdce66412"><path d="M9.5999755859375,22.799957275390625C9.1031494140625,22.139068603515625,8.160888671875,22.00311279296875,7.5,22.500030517578125C6.839111328125,22.996856689453125,6.703155517578125,23.939056396484375,7.199981689453125,24.600006103515625L8.9859619140625,26.981231689453125C9.2109375,27.28125,9.1781005859375,27.69842529296875,8.9156494140625,27.960906982421875L8.31561279296875,28.5609130859375C8.0015869140625,28.875,7.4906005859375,28.851531982421875,7.209381103515625,28.509368896484375L3,23.45623779296875L3,16.500030517578125C3,15.670318603515625,2.329681396484375,15.00006103515625,1.499969482421875,15.00006103515625C0.6702880859375,15.00006103515625,0,15.670318603515625,0,16.500030517578125L0,26.73748779296875C0,27.2484130859375,0.173431396484375,27.74530029296875,0.492218017578125,28.14373779296875L5.371856689453125,34.439056396484375C5.606231689453125,34.7437744140625,5.765655517578125,35.09063720703125,5.859375,35.456207275390625C5.9437255859375,35.7796630859375,6.239044189453125,35.999969482421875,6.576568603515625,35.999969482421875L12.749969482421875,35.999969482421875C13.1624755859375,35.999969482421875,13.500030517578125,35.6624755859375,13.500030517578125,35.25L13.500030517578125,30C13.500030517578125,28.701568603515625,13.078125,27.44061279296875,12.29998779296875,26.399993896484375ZM28.499969482421875,15.00006103515625C27.670257568359375,15.00006103515625,27,15.670318603515625,27,16.500030517578125L27,23.45623779296875L22.790618896484375,28.509368896484375C22.5093994140625,28.84686279296875,21.9937744140625,28.87030029296875,21.68438720703125,28.5609130859375L21.0843505859375,27.960906982421875C20.8218994140625,27.69842529296875,20.7890625,27.28125,21.0140380859375,26.981231689453125L22.800018310546875,24.600006103515625C23.296844482421875,23.939056396484375,23.160888671875,22.996856689453125,22.5,22.500030517578125C21.839111328125,22.00311279296875,20.8968505859375,22.139068603515625,20.4000244140625,22.799957275390625L17.70001220703125,26.399993896484375C16.921875,27.44061279296875,16.499969482421875,28.701568603515625,16.499969482421875,30L16.499969482421875,35.25C16.499969482421875,35.6624755859375,16.8375244140625,35.999969482421875,17.250030517578125,35.999969482421875L23.423431396484375,35.999969482421875C23.7562255859375,35.999969482421875,24.0562744140625,35.7796630859375,24.140625,35.456207275390625C24.234344482421875,35.09063720703125,24.393768310546875,34.7437744140625,24.628082275390625,34.439056396484375L29.507720947265625,28.14373779296875C29.826568603515625,27.74530029296875,29.99993896484375,27.2484130859375,29.99993896484375,26.73748779296875L29.99993896484375,16.500030517578125C29.99993896484375,15.670318603515625,29.32965087890625,15.00006103515625,28.499969482421875,15.00006103515625" style="fill: rgb(14, 165, 233); fill-opacity: 1;"/></g></g></g><g id="shape-839613cc-263f-80c6-8006-6dccb10cc694" width="24" height="24" rx="0" ry="0" style="fill: rgb(0, 0, 0);"><g id="shape-839613cc-263f-80c6-8006-6dccb10cc695" style="display: none;"><g class="fills" id="fills-839613cc-263f-80c6-8006-6dccb10cc695"><rect width="24" height="24" x="3" transform="matrix(1.000000, 0.000000, 0.000000, 1.000000, 0.000000, 0.000000)" style="fill: none;" ry="0" fill="none" rx="0" y="0"/></g></g><g id="shape-839613cc-263f-80c6-8006-6dccb10cc696" rx="0" ry="0" style="fill: rgb(0, 0, 0);"><g id="shape-839613cc-263f-80c6-8006-6dccb10cc697"><g class="fills" id="fills-839613cc-263f-80c6-8006-6dccb10cc697"><path d="M22,8.709991455078125L16.6669921875,4.56201171875C15.704193115234375,3.81298828125,14.355804443359375,3.81298828125,13.39300537109375,4.56201171875L8.058990478515625,8.709991455078125C7.410003662109375,9.215667724609375,7.030364990234375,9.992279052734375,7.029998779296875,10.81500244140625L7.029998779296875,18.0150146484375C7.029998779296875,19.11956787109375,7.9254150390625,20.0150146484375,9.029998779296875,20.0150146484375L21.029998779296875,20.0150146484375C22.13458251953125,20.0150146484375,23.029998779296875,19.11956787109375,23.029998779296875,18.0150146484375L23.029998779296875,10.81500244140625C23.029998779296875,9.99200439453125,22.649993896484375,9.214996337890625,22,8.709991455078125" fill="none" stroke-linejoin="round" stroke-linecap="round" style="fill: none;"/></g><g fill="none" stroke-linejoin="round" stroke-linecap="round" id="strokes-aa37433b-358f-80a0-8006-6e34c0510c5d-839613cc-263f-80c6-8006-6dccb10cc697" class="strokes"><g class="inner-stroke-shape"><defs><clipPath id="inner-stroke-render-8-839613cc-263f-80c6-8006-6dccb10cc697-0"><use href="#stroke-shape-render-8-839613cc-263f-80c6-8006-6dccb10cc697-0"/></clipPath><path d="M22,8.709991455078125L16.6669921875,4.56201171875C15.704193115234375,3.81298828125,14.355804443359375,3.81298828125,13.39300537109375,4.56201171875L8.058990478515625,8.709991455078125C7.410003662109375,9.215667724609375,7.030364990234375,9.992279052734375,7.029998779296875,10.81500244140625L7.029998779296875,18.0150146484375C7.029998779296875,19.11956787109375,7.9254150390625,20.0150146484375,9.029998779296875,20.0150146484375L21.029998779296875,20.0150146484375C22.13458251953125,20.0150146484375,23.029998779296875,19.11956787109375,23.029998779296875,18.0150146484375L23.029998779296875,10.81500244140625C23.029998779296875,9.99200439453125,22.649993896484375,9.214996337890625,22,8.709991455078125" id="stroke-shape-render-8-839613cc-263f-80c6-8006-6dccb10cc697-0" style="fill: none; stroke-width: 4; stroke: rgb(14, 165, 233); stroke-opacity: 1;"/></defs><use href="#stroke-shape-render-8-839613cc-263f-80c6-8006-6dccb10cc697-0" clip-path="url('#inner-stroke-render-8-839613cc-263f-80c6-8006-6dccb10cc697-0')"/></g></g></g><g id="shape-839613cc-263f-80c6-8006-6dccb10cc698"><g class="fills" id="fills-839613cc-263f-80c6-8006-6dccb10cc698"><path d="M19,15C16.790008544921875,16.3330078125,13.2080078125,16.3330078125,11,15" fill="none" stroke-linejoin="round" stroke-linecap="round" style="fill: none;"/></g><g fill="none" stroke-linejoin="round" stroke-linecap="round" id="strokes-aa37433b-358f-80a0-8006-6e34c051f7dc-839613cc-263f-80c6-8006-6dccb10cc698" class="strokes"><g class="stroke-shape"><path d="M19,15C16.790008544921875,16.3330078125,13.2080078125,16.3330078125,11,15" style="fill: none; stroke-width: 2; stroke: rgb(14, 165, 233); stroke-opacity: 1;"/></g></g></g></g></g></g></svg>