<svg width="42" xmlns="http://www.w3.org/2000/svg" height="43" id="screenshot-6abb86bb-1817-80f8-8006-6e57dedcbf6d" viewBox="0 0 42 43" xmlns:xlink="http://www.w3.org/1999/xlink" fill="none" version="1.1"><g id="shape-6abb86bb-1817-80f8-8006-6e57dedcbf6d" rx="0" ry="0"><g id="shape-839613cc-263f-80c6-8006-6dcbdce66413"><g class="fills" id="fills-839613cc-263f-80c6-8006-6dcbdce66413"><ellipse cx="20.99999999999997" cy="22" rx="20.99999999999997" ry="21" transform="matrix(1.000000, 0.000000, 0.000000, 1.000000, 0.000000, 0.000000)" style="fill: rgb(17, 24, 39); fill-opacity: 1;"/></g></g><g id="shape-839613cc-263f-80c6-8006-6dcbdce66418" width="640" height="512" rx="0" ry="0" style="fill: rgb(0, 0, 0);"><g id="shape-839613cc-263f-80c6-8006-6dcbdce66419" style="display: none;"><g class="fills" id="fills-839613cc-263f-80c6-8006-6dcbdce66419"><rect width="29.999999999999943" height="24" x="6" transform="matrix(1.000000, 0.000000, 0.000000, 1.000000, 0.000000, 0.000000)" style="fill: none;" ry="0" fill="none" rx="0" y="13"/></g></g><g id="shape-839613cc-263f-80c6-8006-6dcbdce6641a"><g class="fills" id="fills-839613cc-263f-80c6-8006-6dcbdce6641a"><path d="M15.5999755859375,23.799957275390625C15.1031494140625,23.139068603515625,14.160888671875,23.00311279296875,13.5,23.500030517578125C12.839111328125,23.996856689453125,12.703155517578125,24.939056396484375,13.199981689453125,25.600006103515625L14.9859619140625,27.981231689453125C15.2109375,28.28125,15.1781005859375,28.69842529296875,14.9156494140625,28.960906982421875L14.31561279296875,29.5609130859375C14.0015869140625,29.875,13.4906005859375,29.851531982421875,13.209381103515625,29.509368896484375L9,24.45623779296875L9,17.500030517578125C9,16.670318603515625,8.329681396484375,16.00006103515625,7.499969482421875,16.00006103515625C6.6702880859375,16.00006103515625,6,16.670318603515625,6,17.500030517578125L6,27.73748779296875C6,28.2484130859375,6.173431396484375,28.74530029296875,6.492218017578125,29.14373779296875L11.371856689453125,35.439056396484375C11.606231689453125,35.7437744140625,11.765655517578125,36.09063720703125,11.859375,36.456207275390625C11.9437255859375,36.7796630859375,12.239044189453125,36.999969482421875,12.576568603515625,36.999969482421875L18.749969482421875,36.999969482421875C19.1624755859375,36.999969482421875,19.500030517578125,36.6624755859375,19.500030517578125,36.25L19.500030517578125,31C19.500030517578125,29.701568603515625,19.078125,28.44061279296875,18.29998779296875,27.399993896484375ZM34.499969482421875,16.00006103515625C33.670257568359375,16.00006103515625,32.999969482421875,16.670318603515625,32.999969482421875,17.500030517578125L32.999969482421875,24.45623779296875L28.790618896484375,29.509368896484375C28.5093994140625,29.84686279296875,27.9937744140625,29.87030029296875,27.68438720703125,29.5609130859375L27.0843505859375,28.960906982421875C26.8218994140625,28.69842529296875,26.7890625,28.28125,27.0140380859375,27.981231689453125L28.800018310546875,25.600006103515625C29.296844482421875,24.939056396484375,29.160888671875,23.996856689453125,28.5,23.500030517578125C27.839111328125,23.00311279296875,26.8968505859375,23.139068603515625,26.4000244140625,23.799957275390625L23.70001220703125,27.399993896484375C22.921875,28.44061279296875,22.499969482421875,29.701568603515625,22.499969482421875,31L22.499969482421875,36.25C22.499969482421875,36.6624755859375,22.8375244140625,36.999969482421875,23.250030517578125,36.999969482421875L29.423431396484375,36.999969482421875C29.7562255859375,36.999969482421875,30.0562744140625,36.7796630859375,30.140625,36.456207275390625C30.234344482421875,36.09063720703125,30.393768310546875,35.7437744140625,30.628082275390625,35.439056396484375L35.507720947265625,29.14373779296875C35.826568603515625,28.74530029296875,35.999908447265625,28.2484130859375,35.999908447265625,27.73748779296875L35.999908447265625,17.500030517578125C35.999908447265625,16.670318603515625,35.329620361328125,16.00006103515625,34.499969482421875,16.00006103515625" style="fill: rgb(14, 165, 233); fill-opacity: 1;"/></g></g></g><g id="shape-839613cc-263f-80c6-8006-6dcbfa4cdc19" width="24" height="24" rx="0" ry="0" style="fill: rgb(0, 0, 0);"><g id="shape-839613cc-263f-80c6-8006-6dcbfa4dbbd8" style="display: none;"><g class="fills" id="fills-839613cc-263f-80c6-8006-6dcbfa4dbbd8"><rect width="24" height="24" x="9" transform="matrix(1.000000, 0.000000, 0.000000, 1.000000, 0.000000, 0.000000)" style="fill: none;" ry="0" fill="none" rx="0" y="0"/></g></g><g id="shape-839613cc-263f-80c6-8006-6dcbfa4de88b" rx="0" ry="0" style="fill: rgb(0, 0, 0);"><g id="shape-839613cc-263f-80c6-8006-6dcbfa4e6f48"><g class="fills" id="fills-839613cc-263f-80c6-8006-6dcbfa4e6f48"><path d="M28,8.709991455078125L22.6669921875,4.56201171875C21.704193115234375,3.81298828125,20.355804443359375,3.81298828125,19.39300537109375,4.56201171875L14.058990478515625,8.709991455078125C13.410003662109375,9.215667724609375,13.030364990234375,9.992279052734375,13.029998779296875,10.81500244140625L13.029998779296875,18.0150146484375C13.029998779296875,19.11956787109375,13.9254150390625,20.0150146484375,15.029998779296875,20.0150146484375L27.029998779296875,20.0150146484375C28.13458251953125,20.0150146484375,29.029998779296875,19.11956787109375,29.029998779296875,18.0150146484375L29.029998779296875,10.81500244140625C29.029998779296875,9.99200439453125,28.649993896484375,9.214996337890625,28,8.709991455078125" fill="none" stroke-linejoin="round" stroke-linecap="round" style="fill: none;"/></g><g fill="none" stroke-linejoin="round" stroke-linecap="round" id="strokes-9f93af10-2b3e-80ef-8006-6e57e71fd30c-839613cc-263f-80c6-8006-6dcbfa4e6f48" class="strokes"><g class="inner-stroke-shape"><defs><clipPath id="inner-stroke-render-9-839613cc-263f-80c6-8006-6dcbfa4e6f48-0"><use href="#stroke-shape-render-9-839613cc-263f-80c6-8006-6dcbfa4e6f48-0"/></clipPath><path d="M28,8.709991455078125L22.6669921875,4.56201171875C21.704193115234375,3.81298828125,20.355804443359375,3.81298828125,19.39300537109375,4.56201171875L14.058990478515625,8.709991455078125C13.410003662109375,9.215667724609375,13.030364990234375,9.992279052734375,13.029998779296875,10.81500244140625L13.029998779296875,18.0150146484375C13.029998779296875,19.11956787109375,13.9254150390625,20.0150146484375,15.029998779296875,20.0150146484375L27.029998779296875,20.0150146484375C28.13458251953125,20.0150146484375,29.029998779296875,19.11956787109375,29.029998779296875,18.0150146484375L29.029998779296875,10.81500244140625C29.029998779296875,9.99200439453125,28.649993896484375,9.214996337890625,28,8.709991455078125" id="stroke-shape-render-9-839613cc-263f-80c6-8006-6dcbfa4e6f48-0" style="fill: none; stroke-width: 4; stroke: rgb(14, 165, 233); stroke-opacity: 1;"/></defs><use href="#stroke-shape-render-9-839613cc-263f-80c6-8006-6dcbfa4e6f48-0" clip-path="url('#inner-stroke-render-9-839613cc-263f-80c6-8006-6dcbfa4e6f48-0')"/></g></g></g><g id="shape-839613cc-263f-80c6-8006-6dcbfa4ed239"><g class="fills" id="fills-839613cc-263f-80c6-8006-6dcbfa4ed239"><path d="M25,15C22.790008544921875,16.3330078125,19.2080078125,16.3330078125,17,15" fill="none" stroke-linejoin="round" stroke-linecap="round" style="fill: none;"/></g><g fill="none" stroke-linejoin="round" stroke-linecap="round" id="strokes-9f93af10-2b3e-80ef-8006-6e57e720a3be-839613cc-263f-80c6-8006-6dcbfa4ed239" class="strokes"><g class="stroke-shape"><path d="M25,15C22.790008544921875,16.3330078125,19.2080078125,16.3330078125,17,15" style="fill: none; stroke-width: 2; stroke: rgb(14, 165, 233); stroke-opacity: 1;"/></g></g></g></g></g></g></svg>